P3
# CREATOR: GIMP PNM Filter Version 1.1
63 63
255
73
71
48
79
79
53
72
72
46
73
73
47
73
73
47
73
73
47
73
73
47
73
73
49
73
73
49
73
73
49
73
73
49
73
73
49
73
73
47
73
73
47
73
73
47
73
73
47
73
73
47
73
73
47
73
73
47
73
73
47
73
73
47
73
73
47
73
73
47
73
73
47
73
73
47
73
73
47
73
73
47
73
73
47
73
73
47
73
73
47
73
73
47
73
73
47
73
73
47
73
73
47
73
73
47
76
76
50
74
74
48
77
77
51
78
78
52
66
66
40
80
80
54
69
69
43
78
78
52
73
73
45
73
73
45
73
73
45
73
73
45
73
73
45
73
73
45
73
73
45
73
73
45
73
73
45
73
73
45
73
73
45
73
73
45
73
73
45
73
73
45
73
73
45
73
73
45
70
73
44
74
77
48
74
74
46
255
255
230
73
73
49
73
73
47
78
78
52
75
75
49
75
75
49
75
75
49
75
75
49
75
75
51
75
75
51
75
75
51
75
75
51
75
75
49
75
75
49
75
75
49
75
75
49
75
75
49
75
75
49
75
75
49
75
75
49
75
75
49
75
75
49
75
75
49
75
75
49
75
75
49
75
75
49
75
75
49
75
75
49
75
75
49
75
75
49
75
75
49
75
75
49
75
75
49
75
75
49
75
75
49
75
75
49
72
72
46
70
70
44
75
75
49
67
67
41
80
80
54
79
79
53
75
75
49
69
69
43
75
75
47
75
75
47
75
75
47
75
75
47
75
75
47
75
75
47
75
75
47
75
75
47
75
75
47
75
75
47
75
75
47
75
75
47
75
75
47
75
75
47
75
75
47
75
75
47
70
73
44
73
76
47
74
74
46
238
238
210
71
71
45
74
74
48
68
71
44
71
74
45
71
74
45
71
74
47
71
74
47
71
74
47
71
74
47
73
73
47
73
73
47
71
74
47
71
74
47
71
74
47
71
74
47
71
74
47
71
74
47
71
74
47
71
74
47
71
74
47
71
74
47
71
74
47
71
74
47
71
74
47
71
74
47
71
74
47
71
74
47
71
74
47
71
74
47
71
74
47
71
74
47
71
74
47
71
74
47
71
74
47
71
74
47
77
80
53
72
75
48
73
76
49
73
76
49
64
67
40
72
75
48
68
71
44
75
78
51
71
74
45
71
74
45
71
74
45
71
74
45
71
74
45
71
74
45
71
74
45
71
74
45
71
74
45
71
74
45
71
74
45
71
74
45
71
74
45
71
74
45
71
74
45
71
74
45
77
80
51
68
71
42
77
77
49
253
253
225
72
72
46
71
74
47
77
80
53
73
76
47
73
76
47
73
76
49
73
76
49
73
76
49
73
76
49
75
75
49
75
75
49
73
76
49
73
76
49
73
76
49
73
76
49
73
76
49
73
76
49
73
76
49
73
76
49
73
76
49
73
76
49
73
76
49
73
76
49
73
76
49
73
76
49
73
76
49
73
76
49
73
76
49
73
76
49
73
76
49
73
76
49
73
76
49
73
76
49
73
76
49
73
76
49
67
70
43
76
79
52
68
71
44
77
80
53
74
77
50
74
77
50
69
72
45
76
79
52
73
76
47
73
76
47
73
76
47
73
76
47
73
76
47
73
76
47
73
76
47
73
76
47
73
76
47
73
76
47
73
76
47
73
76
47
73
76
47
73
76
47
73
76
47
73
76
47
72
75
46
64
67
38
77
77
49
252
252
224
77
77
51
70
73
44
71
74
45
70
75
45
70
75
45
70
75
45
70
75
45
71
74
45
71
74
45
71
74
45
71
74
45
71
74
45
71
74
45
71
74
45
71
74
45
71
74
45
71
74
45
71
74
45
71
74
45
71
74
45
71
74
45
71
74
45
71
74
45
71
74
45
71
74
45
71
74
45
71
74
45
71
74
45
71
74
45
71
74
45
71
74
45
71
74
45
71
74
45
71
74
45
71
74
45
72
75
46
75
78
49
73
76
47
68
71
42
74
77
48
71
74
45
73
76
47
70
73
44
71
74
45
71
74
45
71
74
45
71
74
45
71
74
45
71
74
45
71
74
45
71
74
45
71
74
45
71
74
45
71
74
45
71
74
45
71
74
45
71
74
45
71
74
45
71
74
45
72
75
46
75
78
49
74
74
46
248
248
220
75
75
49
70
73
44
73
76
47
71
76
46
71
76
46
71
76
46
71
76
46
72
75
46
72
75
46
72
75
46
72
75
46
72
75
46
72
75
46
72
75
46
72
75
46
72
75
46
72
75
46
72
75
46
72
75
46
72
75
46
72
75
46
72
75
46
72
75
46
72
75
46
72
75
46
72
75
46
72
75
46
72
75
46
72
75
46
72
75
46
72
75
46
72
75
46
72
75
46
72
75
46
72
75
46
73
76
47
71
74
45
73
76
47
73
76
47
71
74
45
70
73
44
73
76
47
73
76
47
72
75
46
72
75
46
72
75
46
72
75
46
72
75
46
72
75
46
72
75
46
72
75
46
72
75
46
72
75
46
72
75
46
72
75
46
72
75
46
72
75
46
72
75
46
72
75
46
71
74
45
71
74
45
75
75
47
74
74
46
71
74
47
72
75
46
72
75
46
71
76
46
71
76
46
71
76
46
71
76
46
72
75
46
72
75
46
72
75
46
72
75
46
71
76
46
71
76
46
71
76
46
71
76
46
71
76
46
71
76
46
71
76
46
71
76
46
71
76
46
71
76
46
71
76
46
71
76
46
71
76
46
71
76
46
71
76
46
71
76
46
73
78
48
68
73
43
77
82
52
67
72
42
69
74
44
74
79
49
71
76
46
70
75
45
71
76
46
71
76
46
71
76
46
71
76
46
71
76
46
71
76
46
71
76
46
71
76
46
71
76
46
71
76
46
71
76
46
71
76
46
71
76
46
71
76
46
71
76
46
71
76
46
71
76
46
71
76
46
71
76
46
71
76
46
71
76
46
71
76
46
71
76
46
71
76
46
72
75
46
72
75
46
74
74
46
73
73
45
71
74
47
72
75
46
72
75
46
71
76
46
71
76
46
71
76
46
71
76
46
72
75
46
72
75
46
72
75
46
72
75
46
71
76
46
71
76
46
71
76
46
71
76
46
71
76
46
71
76
46
71
76
46
71
76
46
71
76
46
71
76
46
71
76
46
71
76
46
71
76
46
71
76
46
71
76
46
71
76
46
71
76
46
68
73
43
71
76
46
80
85
55
73
78
48
70
75
45
71
76
46
72
77
47
71
76
46
71
76
46
71
76
46
71
76
46
71
76
46
71
76
46
71
76
46
71
76
46
71
76
46
71
76
46
71
76
46
71
76
46
71
76
46
71
76
46
71
76
46
71
76
46
71
76
46
71
76
46
71
76
46
71
76
46
71
76
46
71
76
46
71
76
46
71
76
46
72
75
46
72
75
46
74
74
46
73
73
45
73
73
47
72
75
46
72
75
46
71
76
46
71
76
46
71
76
46
71
76
46
72
75
46
72
75
46
72
75
46
72
75
46
72
75
46
72
75
46
72
75
46
72
75
46
72
75
46
72
75
46
72
75
46
72
75
46
72
75
46
72
75
46
72
75
46
72
75
46
72
75
46
72
75
46
72
75
46
72
75
46
72
75
46
73
76
47
71
74
45
61
64
35
69
72
43
76
79
50
68
71
42
75
78
49
72
75
46
72
75
46
72
75
46
72
75
46
72
75
46
72
75
46
72
75
46
72
75
46
72
75
46
72
75
46
72
75
46
72
75
46
72
75
46
72
75
46
72
75
46
72
75
46
72
75
46
72
75
46
72
75
46
72
75
46
72
75
46
72
75
46
72
75
46
72
75
46
72
75
46
72
75
46
74
74
46
73
73
45
73
73
47
72
75
48
72
75
46
71
76
46
71
76
46
71
76
46
71
76
46
72
75
46
72
75
46
72
75
46
72
75
46
72
75
46
72
75
46
72
75
46
72
75
46
72
75
46
72
75
46
72
75
46
72
75
46
72
75
46
72
75
46
72
75
46
72
75
46
72
75
46
72
75
46
72
75
46
72
75
46
74
77
48
74
77
48
78
81
52
70
73
44
79
82
53
71
74
45
69
72
43
75
78
49
72
75
46
72
75
46
72
75
46
72
75
46
72
75
46
72
75
46
72
75
46
72
75
46
72
75
46
72
75
46
72
75
46
72
75
46
72
75
46
72
75
46
72
75
46
72
75
46
72
75
46
72
75
46
72
75
46
72
75
46
72
75
46
72
75
46
72
75
46
72
75
46
72
75
46
72
75
46
74
74
46
73
73
45
73
73
47
72
75
48
72
75
48
72
75
46
72
75
46
72
75
46
72
75
46
72
75
46
72
75
46
72
75
46
72
75
46
72
75
46
72
75
46
72
75
46
72
75
46
72
75
46
72
75
46
72
75
46
72
75
46
72
75
46
72
75
46
72
75
46
72
75
46
72
75
46
72
75
46
72
75
46
72
75
46
72
75
46
71
74
45
65
68
39
72
75
46
73
76
47
70
73
44
82
85
56
68
71
42
72
75
46
72
75
46
72
75
46
72
75
46
72
75
46
72
75
46
72
75
46
72
75
46
72
75
46
72
75
46
72
75
46
72
75
46
72
75
46
72
75
46
72
75
46
72
75
46
72
75
46
72
75
46
72
75
46
72
75
46
72
75
46
72
75
46
72
75
46
72
75
46
72
75
46
72
75
46
74
74
46
73
73
45
73
73
49
72
75
48
72
75
48
72
75
46
72
75
46
72
75
46
72
75
46
72
75
46
72
75
46
72
75
46
72
75
46
72
75
46
72
75
46
72
75
46
72
75
46
72
75
46
72
75
46
72
75
46
72
75
46
72
75
46
72
75
46
72
75
46
72
75
46
72
75
46
72
75
46
72
75
46
72
75
46
71
74
45
74
77
48
74
77
48
74
77
48
69
72
43
75
78
49
66
69
40
72
75
46
72
75
46
72
75
46
72
75
46
72
75
46
72
75
46
72
75
46
72
75
46
72
75
46
72
75
46
72
75
46
72
75
46
72
75
46
72
75
46
72
75
46
72
75
46
72
75
46
72
75
46
72
75
46
72
75
46
72
75
46
72
75
46
72
75
46
72
75
46
72
75
46
72
75
46
72
75
46
74
74
46
73
73
45
73
73
49
74
74
48
74
74
48
72
75
46
72
75
46
72
75
46
72
75
46
72
75
46
72
75
46
74
74
46
74
74
46
72
75
48
72
75
48
72
75
48
72
75
48
72
75
48
72
75
48
72
75
48
72
75
48
72
75
48
72
75
48
72
75
48
72
75
48
72
75
48
72
75
48
72
75
48
72
75
48
74
77
50
66
69
42
74
77
50
69
72
45
69
72
45
74
77
50
79
82
55
72
75
48
72
75
48
72
75
48
72
75
48
72
75
48
72
75
48
72
75
48
72
75
48
72
75
48
72
75
46
72
75
46
72
75
46
72
75
46
72
75
46
72
75
46
72
75
46
72
75
46
72
75
46
72
75
46
72
75
46
72
75
46
72
75
46
72
75
46
72
75
46
72
75
46
72
75
46
72
75
46
74
74
46
73
73
45
73
73
49
74
74
48
74
74
48
72
75
46
72
75
46
72
75
46
72
75
46
72
75
46
72
75
46
74
74
46
74
74
46
72
75
46
72
75
46
72
75
48
72
75
48
72
75
48
72
75
48
72
75
48
72
75
48
72
75
48
72
75
48
72
75
48
72
75
48
72
75
48
72
75
48
74
74
48
72
75
48
251
251
225
249
252
225
253
253
229
248
251
224
253
253
229
247
250
223
251
251
225
71
74
47
74
74
48
72
75
48
74
74
48
72
75
48
74
74
48
72
75
48
74
74
48
72
75
48
72
75
46
72
75
46
72
75
46
72
75
46
72
75
46
72
75
46
72
75
46
72
75
46
72
75
46
72
75
46
72
75
46
72
75
46
72
75
46
72
75
46
72
75
46
72
75
46
72
75
46
72
75
46
74
74
46
73
73
45
73
73
47
72
75
48
72
75
48
72
75
46
72
75
46
72
75
46
72
75
46
72
75
46
72
75
46
72
75
46
72
75
46
68
71
42
78
81
50
68
71
42
73
76
47
75
78
49
69
72
43
76
76
50
72
72
46
75
75
49
76
76
50
72
72
48
77
77
53
72
72
46
250
250
224
254
252
227
249
249
223
252
250
227
251
251
227
252
250
229
251
251
227
252
250
229
251
251
227
252
250
227
251
251
227
255
253
230
250
250
226
75
73
50
73
73
49
72
70
47
77
77
53
74
72
47
75
75
49
73
76
49
70
73
46
70
73
44
77
80
51
68
71
42
75
78
49
72
77
45
68
73
41
71
76
44
71
76
44
72
75
44
72
75
44
72
75
46
72
75
46
74
74
46
74
74
46
72
75
46
72
75
46
72
75
46
71
74
45
73
73
47
72
75
48
72
75
48
72
75
46
72
75
46
72
75
46
72
75
46
72
75
46
72
75
46
72
75
46
72
75
46
71
74
43
78
81
50
72
75
44
71
74
43
70
73
44
75
78
49
76
76
50
74
74
48
73
73
47
70
70
44
78
78
54
250
250
226
244
242
219
253
251
226
254
252
229
252
250
227
252
250
229
252
250
229
252
250
229
252
250
229
252
250
229
252
250
229
252
250
227
252
250
227
251
249
226
252
250
227
254
252
229
250
248
225
74
72
49
79
77
54
74
72
47
70
68
43
72
72
46
74
77
50
74
77
48
69
72
43
69
72
43
72
75
46
68
73
41
73
78
46
71
76
44
71
76
44
72
75
44
72
75
44
72
75
46
72
75
46
74
74
46
74
74
46
72
75
46
72
75
46
72
75
46
71
74
45
73
73
47
72
75
48
72
75
48
72
75
46
72
75
46
72
75
46
72
75
46
72
75
46
72
75
46
72
75
46
72
75
46
74
77
46
68
71
40
71
74
45
76
79
50
69
72
45
76
79
52
71
71
47
72
72
48
76
76
52
254
254
230
247
246
225
255
255
235
249
247
226
255
255
232
254
252
231
251
249
228
252
250
229
252
249
230
252
250
229
252
250
229
252
250
229
252
250
229
252
250
229
252
250
229
251
249
228
247
245
224
253
251
230
252
250
229
253
251
228
254
252
229
74
72
49
81
79
56
79
79
53
68
68
42
73
76
49
78
81
54
69
72
43
77
80
51
71
76
44
73
78
46
71
76
44
71
76
44
72
75
46
72
75
46
72
75
46
72
75
46
74
74
46
74
74
46
72
75
46
72
75
46
74
74
46
73
73
45
73
73
47
72
75
48
72
75
48
72
75
46
72
75
46
72
75
46
72
75
46
72
75
46
72
75
46
72
75
46
72
75
46
70
73
42
75
78
47
73
76
47
65
68
39
79
82
55
70
73
46
72
72
48
80
80
56
250
250
226
251
250
229
249
248
227
253
252
231
253
251
230
253
251
230
250
248
227
250
248
227
252
249
230
252
249
230
252
250
229
252
250
229
252
250
229
252
250
229
252
250
229
252
250
229
255
255
234
251
249
228
255
255
235
251
249
228
246
244
223
250
248
225
255
253
232
71
69
46
70
70
46
74
74
48
72
75
48
71
74
47
76
79
50
67
70
41
71
76
44
71
76
44
71
76
44
71
76
44
72
75
46
72
75
46
72
75
46
72
75
46
74
74
46
74
74
46
72
75
46
72
75
46
74
74
46
73
73
45
73
73
47
72
75
48
72
75
48
72
75
46
72
75
46
72
75
46
72
75
46
72
75
46
72
75
46
72
75
46
72
75
46
70
73
44
76
79
50
70
73
44
71
74
45
71
74
47
73
75
51
252
251
230
246
245
224
252
251
230
249
248
228
255
255
236
243
240
221
255
252
233
255
253
234
251
248
229
254
251
232
252
249
230
252
249
230
252
249
230
252
249
230
252
249
230
252
249
230
252
249
230
252
249
230
248
245
226
252
249
230
249
246
227
253
250
231
255
253
234
251
249
228
254
251
232
250
248
227
254
254
230
79
79
55
73
73
47
72
72
46
74
77
48
76
79
50
68
71
42
73
76
47
72
75
44
72
75
44
72
75
46
72
75
46
72
75
46
72
75
46
74
74
46
74
74
46
74
74
46
74
74
46
74
74
48
73
73
47
73
73
47
72
75
48
72
75
48
72
75
46
72
75
46
72
75
46
72
75
46
72
75
46
72
75
46
72
75
46
72
75
46
73
76
47
66
69
40
75
78
49
78
81
54
65
67
43
75
77
53
249
248
227
250
249
228
254
253
233
244
243
223
253
250
231
255
253
234
249
246
227
250
247
228
249
246
227
251
248
229
251
248
229
251
248
229
251
248
229
251
248
229
251
248
229
251
248
229
251
248
229
251
248
229
253
250
231
251
248
229
253
250
231
250
247
228
250
247
228
247
244
225
255
253
234
250
247
228
249
248
227
249
249
225
75
75
51
72
72
46
68
71
44
73
76
47
75
78
49
71
74
45
72
75
44
72
75
44
72
75
46
72
75
46
72
75
46
72
75
46
74
74
46
74
74
46
74
74
46
74
74
46
74
74
48
73
73
47
73
73
47
72
75
48
72
75
48
72
75
46
72
75
46
72
75
46
72
75
46
72
75
46
72
75
46
72
75
46
72
75
46
73
76
47
79
82
53
69
72
45
72
75
48
76
76
52
247
247
223
253
252
231
251
250
230
249
248
230
255
254
236
249
246
229
245
242
225
251
248
231
255
255
239
246
243
226
255
253
236
251
248
231
251
248
231
251
248
231
251
248
231
251
248
231
251
248
231
251
248
231
251
248
231
251
248
231
251
248
231
250
247
230
250
247
230
250
247
230
255
252
235
247
244
227
251
248
229
252
251
230
253
253
229
249
249
225
81
81
55
73
76
49
66
69
42
74
77
48
70
73
44
72
75
46
72
75
46
72
75
46
72
75
46
72
75
46
72
75
46
74
74
46
74
74
46
74
74
46
74
74
46
74
74
48
73
73
47
73
73
47
72
75
48
72
75
48
72
75
46
72
75
46
72
75
46
72
75
46
72
75
46
72
75
46
72
75
46
72
75
46
72
75
46
69
72
43
72
75
48
71
74
47
251
251
227
253
252
231
248
247
227
250
249
229
251
250
232
249
248
230
251
248
231
255
253
236
249
246
229
249
246
229
254
251
236
247
244
229
251
248
231
251
248
231
251
248
231
251
248
231
251
248
231
251
248
231
251
248
231
251
248
231
252
249
232
249
246
229
253
250
233
248
245
228
254
251
234
250
247
230
251
248
231
254
251
234
249
248
228
251
250
229
252
251
230
250
250
226
72
74
50
74
77
50
71
74
47
73
76
47
72
75
46
72
75
46
72
75
46
72
75
46
72
75
46
72
75
46
74
74
46
74
74
46
74
74
46
74
74
46
74
74
48
73
73
47
73
73
47
72
75
48
72
75
48
72
75
46
72
75
46
72
75
46
72
75
46
72
75
46
72
75
46
72
75
46
72
75
46
74
77
50
73
76
49
71
73
49
247
249
225
247
246
225
253
252
231
248
247
227
253
252
232
251
248
231
251
248
231
251
248
231
251
248
231
251
248
231
251
248
231
251
248
231
251
248
231
251
248
231
251
248
231
251
248
231
251
248
231
251
248
231
251
248
231
251
248
231
251
248
231
251
248
231
251
248
231
251
248
231
251
248
231
251
248
231
251
248
231
251
248
231
251
248
231
254
251
232
251
249
228
252
251
230
254
254
230
70
70
46
73
73
47
79
82
55
71
74
47
72
75
46
72
75
46
72
75
46
72
75
46
72
75
46
72
75
46
74
74
46
74
74
46
73
73
45
77
77
49
71
71
45
76
76
50
73
73
47
72
75
48
72
75
48
72
75
46
72
75
46
72
75
46
72
75
46
72
75
46
72
75
46
72
75
46
72
75
46
68
71
44
73
76
49
69
71
47
254
255
232
250
249
228
250
249
228
250
249
229
243
242
222
251
248
231
251
248
231
251
248
231
251
248
231
251
248
231
251
248
231
251
248
231
251
248
231
250
247
230
250
247
230
250
247
230
250
247
230
250
247
230
250
247
230
250
247
230
250
247
230
250
247
230
250
247
230
250
247
230
250
247
230
250
247
230
250
247
230
250
247
230
250
247
230
252
249
230
255
253
234
249
248
228
245
244
223
255
255
234
72
72
48
66
69
42
71
74
47
72
75
46
72
75
46
72
75
46
72
75
46
72
75
46
72
75
46
74
74
46
74
74
46
76
76
48
67
67
39
79
79
53
73
73
47
73
73
47
72
75
48
72
75
48
72
75
46
72
75
46
72
75
46
72
75
46
72
75
46
72
75
46
72
75
46
72
75
46
75
78
51
71
74
47
76
76
52
253
253
229
245
244
223
247
246
225
255
255
237
253
252
232
251
248
229
251
248
229
251
248
229
251
248
229
251
248
229
251
248
229
253
248
229
253
248
229
249
246
227
249
246
227
249
246
227
249
246
227
249
246
227
249
246
227
249
246
227
249
246
227
249
246
227
249
246
227
249
246
227
249
246
227
249
246
227
249
246
227
249
246
227
249
246
227
248
245
228
254
251
232
252
249
230
253
251
230
254
253
232
74
74
50
72
75
48
76
79
52
72
75
46
72
75
46
72
75
46
72
75
46
72
75
46
72
75
46
74
74
46
74
74
46
72
75
46
75
78
49
72
72
46
73
73
47
73
73
47
72
75
48
72
75
48
72
75
46
72
75
46
72
75
46
72
75
46
72
75
46
72
75
46
72
75
46
72
75
46
69
72
45
73
76
49
252
252
228
244
244
220
252
251
230
254
253
232
249
248
228
244
243
223
251
248
229
251
248
229
251
248
229
251
248
229
251
248
229
251
249
228
253
248
229
253
248
228
249
246
227
249
247
226
249
246
227
249
246
227
249
246
227
249
246
227
249
246
227
249
246
227
249
246
227
249
246
227
249
246
227
249
246
227
249
246
227
249
246
227
249
246
227
249
246
227
255
252
235
251
248
231
251
248
229
253
250
231
247
246
225
73
72
51
73
75
51
69
72
45
72
75
48
72
75
46
72
75
46
72
75
46
72
75
46
72
75
46
74
74
46
72
75
46
69
72
43
72
75
46
72
72
46
78
78
52
73
73
47
72
75
48
72
75
48
72
75
46
72
75
46
72
75
46
72
75
46
72
75
46
72
75
46
72
75
46
72
75
46
74
74
48
74
74
48
246
246
222
252
252
228
249
249
225
249
249
225
250
249
228
252
251
230
251
249
228
251
249
228
251
249
228
251
249
228
253
248
228
253
248
226
253
248
228
253
248
226
249
247
226
249
247
224
249
247
226
249
247
226
249
247
226
249
247
226
249
247
226
249
247
226
249
247
226
249
247
226
249
247
226
249
247
226
249
247
226
249
247
226
249
246
227
249
246
227
255
250
234
251
245
229
251
248
229
255
252
233
247
246
225
255
255
236
65
65
41
78
78
52
72
75
48
72
75
48
72
75
46
72
75
46
72
75
46
72
75
46
72
75
46
72
75
46
73
76
47
71
76
46
74
77
48
71
74
45
73
73
47
72
75
48
72
75
48
72
75
46
72
75
46
72
75
46
72
75
46
72
75
46
72
75
46
72
75
46
72
75
46
75
75
49
77
77
51
247
247
223
254
254
230
250
250
226
247
247
223
251
250
229
249
248
227
251
249
228
251
249
228
251
249
228
251
249
226
253
248
226
253
248
226
253
248
226
253
248
226
249
247
224
249
247
224
249
247
224
249
247
224
249
247
226
249
247
226
249
247
226
249
247
226
249
247
226
249
247
226
249
247
226
249
247
226
249
247
226
249
247
226
249
246
227
249
246
227
251
245
229
255
249
233
252
249
232
254
251
232
251
250
229
249
248
227
79
79
55
70
70
46
72
75
48
72
75
48
72
75
46
72
75
46
72
75
46
72
75
46
72
75
46
72
75
46
67
72
42
68
73
43
73
76
47
72
75
46
73
73
47
72
75
48
72
75
48
72
75
46
72
75
46
72
75
46
72
75
46
72
75
46
72
75
46
72
75
46
72
75
46
75
75
49
71
71
45
255
255
231
245
245
219
249
249
225
252
252
228
250
248
225
251
249
226
251
249
226
251
249
226
251
249
226
251
249
226
253
248
226
253
249
224
253
249
224
253
249
224
249
247
222
249
247
222
249
247
224
249
247
224
249
247
224
249
247
224
249
247
224
249
247
224
249
247
224
249
247
224
249
247
226
249
247
226
249
247
226
249
247
226
249
247
226
249
246
227
255
251
235
250
244
228
250
247
230
251
248
229
249
248
227
251
250
229
73
73
49
76
76
52
72
75
48
72
75
48
72
75
46
72
75
46
72
75
46
72
75
46
72
75
46
72
75
46
77
82
52
71
76
46
68
73
43
69
74
44
73
73
47
72
75
48
72
75
48
72
75
46
72
75
46
72
75
46
72
75
46
72
75
46
72
75
46
72
75
46
72
75
46
75
75
49
73
73
47
249
249
223
252
252
226
251
251
227
254
252
229
248
246
223
251
249
226
251
249
226
251
249
224
251
249
226
251
249
224
253
249
224
253
249
224
253
249
224
251
249
224
248
246
221
248
246
221
248
246
223
248
246
223
248
246
223
248
246
223
248
246
223
248
246
223
248
246
223
248
246
223
248
246
223
248
246
223
248
246
225
248
246
223
248
246
225
248
246
225
254
248
232
254
248
232
253
250
233
255
254
235
250
248
227
249
249
225
75
75
51
74
74
48
72
75
48
72
75
48
72
75
46
72
75
46
72
75
46
72
75
46
72
75
46
72
75
46
69
74
44
68
73
43
73
78
48
72
77
47
73
73
47
72
75
48
72
75
48
72
75
46
72
75
46
72
75
46
72
75
46
72
75
46
72
75
46
72
75
46
72
75
46
77
77
51
74
72
47
249
247
222
255
255
230
248
246
221
253
249
224
253
249
224
255
251
226
253
249
224
253
249
222
251
249
224
251
250
222
251
250
222
251
250
222
251
250
222
251
250
222
247
245
220
247
245
220
247
245
220
247
245
220
247
245
220
247
245
220
247
245
220
247
245
220
247
245
220
247
245
220
247
245
220
247
245
220
247
245
222
247
245
220
247
245
222
247
245
222
255
251
232
254
249
230
253
248
229
248
245
226
255
255
234
249
247
224
72
72
48
76
76
50
72
75
48
72
75
46
72
75
46
72
75
46
72
75
46
72
75
46
72
75
46
72
75
46
66
70
43
71
75
48
73
78
48
71
76
46
73
73
47
72
75
48
72
75
48
72
75
46
72
75
46
72
75
46
72
75
46
72
75
46
72
75
46
72
75
46
72
75
46
73
73
47
72
70
45
255
255
230
246
244
219
253
249
224
255
253
228
250
246
221
248
244
219
253
249
222
253
249
222
251
250
222
251
250
222
251
250
222
251
250
222
250
250
222
250
250
222
247
245
220
247
245
220
247
245
220
247
245
220
247
245
220
247
245
220
247
245
220
247
245
220
247
245
220
247
245
220
247
245
220
247
245
220
247
245
220
247
245
220
247
245
220
247
245
222
250
245
225
252
247
228
255
255
236
255
251
231
249
247
224
255
255
233
72
72
46
74
74
48
72
75
46
72
75
46
72
75
46
72
75
46
72
75
46
72
75
46
72
75
46
72
75
46
77
81
54
71
75
48
67
72
42
74
79
49
73
73
47
72
75
48
72
75
48
72
75
46
72
75
46
72
75
46
72
75
46
72
75
46
72
75
46
72
75
46
72
75
46
73
73
45
81
81
53
244
243
215
255
254
226
251
250
222
248
247
219
255
251
224
255
255
230
253
249
222
253
249
222
251
250
222
251
250
222
251
250
222
251
250
222
250
250
222
250
250
222
247
245
220
247
245
220
247
245
220
247
245
220
247
245
220
247
245
220
247
245
220
247
245
220
247
245
220
247
245
220
247
245
220
247
245
220
247
245
220
247
245
220
247
245
220
247
245
222
255
255
235
255
250
231
251
246
226
254
249
229
255
254
231
244
242
219
80
80
54
71
71
45
72
75
46
72
75
46
72
75
46
72
75
46
72
75
46
72
75
46
72
75
46
72
75
46
65
70
40
72
77
47
77
80
51
66
69
40
73
73
47
72
75
48
72
75
48
72
75
46
72
75
46
72
75
46
72
75
46
72
75
46
72
75
46
72
75
46
72
75
46
73
73
45
74
74
46
249
248
220
248
247
219
252
251
223
250
249
221
253
249
222
247
243
216
253
249
222
253
249
222
251
250
222
251
250
222
251
250
222
251
250
222
250
250
222
250
250
222
247
245
220
247
245
220
247
245
220
247
245
220
247
245
220
247
245
220
247
245
220
247
245
220
247
245
220
247
245
220
247
245
220
247
245
220
247
245
220
247
245
220
247
245
220
247
245
222
248
243
223
255
250
231
254
249
229
254
252
231
250
248
225
249
249
225
75
75
49
73
73
47
72
75
46
72
75
46
72
75
46
72
75
46
72
75
46
72
75
46
72
75
46
72
75
46
72
77
47
71
76
46
72
75
46
76
79
50
73
73
47
72
75
48
72
75
48
72
75
46
72
75
46
72
75
46
72
75
46
72
75
46
72
75
46
72
75
46
72
75
46
73
73
45
74
74
46
253
252
224
255
255
229
249
248
220
247
246
218
255
254
227
255
251
224
253
249
222
253
249
222
251
250
222
251
250
222
251
250
222
251
250
222
250
250
222
250
250
222
247
246
218
247
246
218
247
246
218
247
246
218
247
246
218
247
246
218
247
246
218
247
246
218
247
246
218
247
246
218
247
246
218
247
246
218
247
246
218
247
246
218
247
246
218
247
245
220
255
252
232
255
254
235
248
246
225
249
247
226
255
255
233
253
253
229
75
75
49
73
76
49
72
75
46
72
75
46
72
75
46
72
75
46
72
75
46
72
75
46
72
75
46
72
75
46
75
78
49
71
74
45
71
74
45
70
73
44
73
73
47
72
75
48
72
75
48
72
75
46
72
75
46
72
75
46
72
75
46
72
75
46
72
75
46
72
75
46
72
75
46
78
78
50
70
70
42
252
251
223
251
250
222
249
248
220
253
252
224
253
249
222
250
246
219
253
249
222
253
249
222
251
250
222
251
250
222
251
250
222
251
250
222
250
250
222
250
250
222
248
247
219
248
247
219
248
247
219
248
247
219
248
247
219
248
247
219
248
247
219
248
247
219
248
247
219
248
247
219
248
247
219
248
247
219
248
247
219
248
247
219
248
247
219
248
246
221
251
246
226
252
247
228
251
249
228
247
245
224
248
248
224
250
250
226
67
70
43
76
79
52
72
75
46
72
75
46
72
75
46
72
75
46
72
75
46
72
75
46
72
75
46
72
75
46
69
72
43
73
76
47
73
76
47
71
74
45
73
73
47
72
75
48
72
75
48
72
75
46
72
75
46
72
75
46
72
75
46
72
75
46
72
75
46
72
75
46
72
75
46
72
72
44
76
76
48
244
244
216
252
252
224
253
252
224
254
253
225
246
245
217
253
252
224
251
250
222
251
250
222
251
250
222
251
250
222
251
250
222
251
250
222
250
250
222
250
250
222
248
246
221
248
246
221
248
246
221
248
246
221
248
246
221
248
246
221
248
246
221
248
246
221
248
246
221
248
246
221
248
246
221
248
246
221
248
246
221
248
246
221
248
246
221
248
246
221
255
253
232
247
245
224
255
253
232
254
252
231
253
253
229
245
245
221
75
78
51
71
74
47
72
75
46
72
75
46
72
75
46
72
75
46
72
75
46
72
75
46
72
75
46
72
75
46
72
75
46
75
78
49
77
77
51
70
70
44
73
73
47
72
75
48
72
75
48
72
75
46
72
75
46
72
75
46
72
75
46
72
75
46
72
75
46
72
75
46
72
75
46
75
75
47
75
75
47
76
76
48
252
252
224
250
249
221
249
248
220
252
251
223
252
251
223
251
250
222
251
250
222
251
250
222
251
250
222
251
250
222
251
250
222
250
250
222
250
250
222
249
247
222
249
247
222
249
247
222
249
247
222
249
247
222
249
247
222
249
247
222
249
247
222
249
247
222
249
247
222
249
247
222
249
247
222
249
247
222
249
247
222
249
247
222
249
247
222
250
248
227
250
248
227
248
246
225
249
247
224
251
251
227
75
75
49
72
75
48
71
74
47
72
75
46
72
75
46
72
75
46
72
75
46
72
75
46
72
75
46
72
75
46
72
75
46
71
74
45
72
75
46
70
70
44
79
79
53
73
73
47
72
75
48
72
75
48
72
75
46
72
75
46
72
75
46
72
75
46
72
75
46
72
75
46
72
75
46
72
75
46
73
76
47
72
75
46
74
74
46
248
248
220
249
249
221
253
253
225
251
250
222
250
249
221
251
249
224
251
249
224
251
249
224
251
249
224
251
249
224
251
249
224
251
249
224
251
249
224
249
247
222
249
247
222
249
247
222
249
247
222
249
247
222
249
247
222
249
247
222
249
247
222
249
247
222
249
247
222
249
247
222
249
247
222
249
247
222
249
247
222
249
247
222
249
247
222
250
248
227
252
250
229
250
250
226
247
247
223
254
254
230
74
74
48
70
73
46
72
75
46
72
75
46
72
75
46
72
75
46
72
75
46
72
75
46
72
75
46
72
75
46
72
75
46
72
75
46
72
75
46
74
74
48
73
73
47
73
73
47
72
75
48
72
75
48
72
75
46
72
75
46
72
75
46
72
75
46
72
75
46
72
75
46
72
75
46
72
75
46
71
74
45
70
73
44
76
76
48
253
253
225
252
252
224
248
248
220
251
250
222
252
251
223
251
249
224
251
249
224
251
249
224
251
249
224
251
249
224
251
249
224
251
249
224
251
249
224
249
247
222
249
247
222
249
247
222
249
247
222
249
247
222
249
247
222
249
247
222
249
247
222
249
247
222
249
247
222
249
247
222
249
247
222
249
247
222
249
247
222
249
247
222
249
247
224
251
249
226
247
245
224
253
253
229
250
250
226
246
246
220
73
73
47
71
74
45
73
76
47
72
75
46
72
75
46
72
75
46
72
75
46
72
75
46
72
75
46
72
75
46
72
75
46
72
75
46
72
75
46
74
74
48
73
73
47
73
73
47
72
75
48
72
75
48
72
75
46
72
75
46
72
75
46
72
75
46
72
75
46
72
75
46
72
75
46
72
75
46
70
73
44
78
81
52
70
73
44
68
71
42
252
252
226
248
248
222
253
251
226
247
245
220
251
249
224
251
249
224
251
249
226
251
249
226
251
249
226
251
249
226
251
249
226
251
249
226
249
247
224
249
247
224
249
247
224
249
247
224
249
247
224
249
247
224
249
247
224
249
247
224
249
247
224
249
247
224
249
247
224
249
247
224
249
247
224
249
247
224
249
247
224
249
247
224
254
252
229
250
248
225
247
247
223
250
250
226
74
77
50
76
79
52
72
75
46
74
77
48
71
76
46
71
76
46
72
75
46
72
75
46
72
75
46
72
75
46
72
75
46
72
75
46
72
75
46
72
75
46
74
74
48
73
73
47
73
73
47
72
75
48
72
75
48
72
75
46
72
75
46
72
75
46
72
75
46
72
75
46
72
75
46
72
75
46
72
75
46
74
77
48
75
78
49
65
68
39
77
80
51
252
252
226
253
253
227
246
244
219
255
255
231
251
249
224
251
249
224
251
249
226
251
249
226
251
249
226
251
249
226
251
249
226
251
249
226
250
248
225
250
248
225
250
248
225
250
248
225
250
248
225
250
248
225
250
248
225
250
248
225
250
248
225
250
248
225
250
248
225
250
248
225
250
248
225
250
248
225
250
248
225
250
248
225
248
246
223
252
250
227
255
255
231
248
248
224
69
72
45
76
79
52
68
71
42
68
71
42
71
76
46
71
76
46
72
75
46
72
75
46
72
75
46
72
75
46
72
75
46
72
75
46
72
75
46
72
75
46
74
74
48
73
73
47
73
73
47
72
75
48
72
75
48
72
75
46
72
75
46
72
75
46
72
75
46
72
75
46
72
75
46
72
75
46
72
75
46
72
76
49
63
67
40
78
81
54
72
75
48
67
67
41
253
253
227
250
248
225
248
246
223
251
249
226
251
249
226
251
249
228
251
249
228
251
249
228
251
249
228
251
249
228
251
249
228
250
248
227
250
248
227
250
248
227
250
248
227
250
248
227
250
248
227
250
248
227
250
248
227
250
248
227
250
248
227
250
248
227
250
248
227
250
248
227
250
248
227
250
248
227
250
248
227
250
250
226
252
252
228
247
247
223
70
70
46
81
84
57
70
73
46
72
77
47
73
78
48
71
76
46
71
76
46
72
75
46
72
75
46
72
75
46
72
75
46
72
75
46
72
75
46
72
75
46
72
75
46
72
75
48
71
74
47
73
73
47
72
75
48
72
75
48
72
75
46
72
75
46
72
75
46
72
75
46
72
75
46
72
75
46
72
75
46
72
75
46
72
76
49
76
80
53
69
72
45
69
72
45
78
78
52
74
74
48
255
253
230
251
249
226
251
249
226
251
249
226
251
249
228
251
249
228
251
249
228
251
249
228
251
249
228
251
249
228
251
249
228
251
249
228
251
249
228
251
249
228
251
249
228
251
249
228
251
249
228
251
249
228
251
249
228
251
249
228
251
249
228
251
249
228
251
249
228
251
249
228
251
249
228
251
249
228
249
249
225
252
252
228
78
78
54
71
71
47
73
76
49
64
67
40
72
77
47
68
73
43
71
76
46
71
76
46
72
75
46
72
75
46
72
75
46
72
75
46
72
75
46
72
75
46
72
75
46
72
75
46
72
75
48
71
73
49
73
73
47
72
75
48
72
75
48
72
75
46
72
75
46
72
75
46
72
75
46
72
75
46
72
75
46
72
75
46
72
75
46
72
76
49
68
72
45
73
76
49
76
79
52
69
69
45
74
74
50
246
246
222
254
254
230
251
249
228
251
249
228
251
249
228
251
249
228
251
248
229
251
248
229
251
248
229
251
248
229
251
248
229
251
248
229
251
248
229
251
248
229
251
248
229
251
248
229
251
248
229
251
248
229
251
248
229
251
248
229
251
248
229
251
248
229
251
248
229
251
248
229
251
248
229
251
249
228
250
250
226
74
74
50
70
73
46
78
81
54
69
72
45
77
80
53
72
77
47
72
77
47
71
76
46
71
76
46
72
75
46
72
75
46
72
75
46
72
75
46
72
75
46
72
75
46
71
76
46
71
76
46
72
75
48
71
73
49
73
73
47
72
75
48
72
75
48
72
75
46
72
75
46
72
75
46
72
75
46
72
75
46
72
75
46
72
75
46
72
75
46
72
76
49
72
76
49
71
74
47
74
77
50
72
72
46
79
79
55
76
76
52
248
248
224
250
249
228
250
249
228
251
249
228
250
249
228
251
248
229
250
249
229
251
248
229
251
248
229
252
249
230
252
249
230
252
249
230
252
249
230
252
249
230
252
249
230
252
249
230
252
249
230
252
249
230
252
249
230
252
249
230
252
249
230
252
249
230
252
249
230
252
249
230
252
250
229
77
77
53
73
73
47
71
74
47
71
74
47
73
76
49
68
71
44
72
77
47
71
76
46
71
76
46
71
76
46
72
75
46
72
75
46
72
75
46
72
75
46
72
75
46
72
75
46
71
76
46
71
75
48
72
75
48
71
73
49
73
73
47
72
75
48
73
76
49
72
75
46
72
75
46
72
75
46
72
75
46
72
75
46
72
75
46
72
75
46
72
75
46
72
75
46
72
75
46
72
75
46
72
75
46
72
75
46
72
75
48
72
75
48
72
75
48
251
253
229
242
244
220
252
251
230
252
254
232
248
247
227
248
250
229
251
250
230
249
248
228
251
248
231
255
252
235
249
246
229
254
251
234
252
249
230
251
248
229
253
250
231
251
248
229
251
249
228
255
253
232
251
249
228
250
248
227
254
252
231
249
247
226
255
253
232
74
72
49
74
74
48
72
75
46
72
75
46
72
75
46
72
75
46
72
75
46
72
75
46
72
75
46
72
75
46
72
75
46
72
75
46
72
75
46
72
75
46
72
75
46
72
75
46
72
75
46
72
75
48
72
75
48
72
75
48
71
74
47
73
73
47
72
75
48
73
76
49
72
75
46
72
75
46
72
75
46
72
75
46
72
75
46
72
75
46
72
75
46
72
75
46
72
75
46
72
75
46
72
75
46
72
75
46
72
75
46
72
75
46
72
75
48
72
75
48
71
73
49
252
254
230
251
253
231
238
240
218
253
255
234
249
251
230
246
248
227
249
251
230
252
251
233
253
250
233
255
252
235
251
248
229
251
248
229
255
255
237
253
250
231
254
251
232
255
253
232
249
247
226
252
250
229
255
255
234
248
246
225
83
81
60
66
64
41
76
76
50
72
75
48
72
75
46
72
75
46
72
75
46
72
75
46
72
75
46
72
75
46
72
75
46
72
75
46
72
75
46
72
75
46
72
75
46
72
75
46
72
75
46
72
75
46
72
75
46
72
75
48
72
75
48
72
75
48
71
74
47
73
73
47
72
75
48
73
76
49
72
75
46
72
75
46
72
75
46
72
75
46
72
75
46
72
75
46
72
75
46
72
75
46
72
75
46
72
75
46
72
75
46
72
75
46
72
75
46
72
75
46
72
75
48
72
75
48
69
71
47
75
77
53
71
73
49
73
75
51
73
75
53
250
252
230
243
245
223
252
254
232
253
252
232
254
253
233
253
252
232
251
250
230
255
255
236
245
244
223
251
250
229
251
250
229
248
247
226
255
255
236
247
247
223
255
255
231
73
73
49
74
74
50
75
75
51
76
76
50
72
75
48
72
75
46
72
75
46
72
75
46
72
75
46
72
75
46
72
75
46
72
75
46
72
75
46
72
75
46
72
75
46
72
75
46
72
75
46
72
75
46
72
75
46
72
75
46
72
75
48
72
75
48
72
75
48
71
74
47
74
74
48
72
75
48
72
75
48
72
75
46
72
75
46
72
75
46
72
75
46
72
75
46
72
75
46
72
75
46
72
75
46
72
75
46
72
75
46
72
75
46
72
75
46
72
75
46
72
75
46
72
75
48
72
75
48
72
74
50
71
73
49
74
76
52
72
74
50
72
74
50
77
79
55
76
78
56
67
69
47
69
68
47
255
254
233
251
250
230
252
251
230
253
252
231
255
255
234
252
251
230
250
250
226
75
74
53
74
74
50
77
77
53
73
73
49
72
72
48
75
75
49
73
73
49
72
72
46
72
75
46
72
75
46
72
75
46
72
75
46
72
75
46
72
75
46
72
75
46
72
75
46
72
75
46
72
75
46
72
75
46
72
75
46
72
75
46
72
75
46
72
75
46
72
75
46
72
75
48
72
75
48
72
75
48
71
74
47
74
74
48
72
75
48
72
75
48
72
75
46
72
75
46
72
75
46
72
75
46
72
75
46
72
75
46
72
75
46
72
75
46
72
75
46
72
75
46
72
75
46
72
75
46
72
75
46
72
75
46
72
75
46
72
75
46
71
74
47
75
78
51
65
68
41
69
72
45
74
77
50
66
69
42
69
71
47
73
75
51
75
75
51
74
74
50
76
75
54
77
77
53
69
69
45
74
74
50
73
73
49
78
78
52
76
76
52
73
73
47
70
70
44
77
77
51
75
75
49
74
74
46
69
69
43
77
77
49
72
75
46
72
75
46
72
75
46
72
75
46
72
75
46
72
75
46
72
75
46
72
75
46
72
75
46
72
75
46
72
75
46
72
75
46
72
75
46
72
75
46
72
75
46
72
75
46
72
75
46
72
75
46
72
75
48
71
74
47
74
74
48
72
75
48
72
75
48
72
75
46
72
75
46
72
75
46
72
75
46
72
75
46
72
75
46
72
75
46
72
75
46
72
75
46
72
75
46
72
75
46
72
75
46
72
75
46
72
75
46
72
75
46
72
75
46
70
73
46
69
72
45
77
80
53
77
80
53
69
72
45
76
79
52
73
76
49
75
78
51
69
69
45
80
80
56
70
70
46
75
75
49
74
74
50
78
78
52
67
67
41
73
73
47
72
72
46
74
74
48
76
76
50
71
71
43
72
72
44
73
73
45
80
80
52
73
73
45
72
75
46
72
75
46
72
75
46
72
75
46
72
75
46
72
75
46
72
75
46
72
75
46
72
75
46
72
75
46
72
75
46
72
75
46
72
75
46
72
75
46
72
75
46
72
75
46
72
75
46
72
75
46
72
75
48
71
74
47
74
74
48
72
75
48
72
75
48
72
75
46
72
75
46
72
75
46
72
75
46
72
75
46
72
75
46
72
75
46
72
75
46
72
75
46
72
75
46
72
75
46
72
75
46
72
75
46
72
75
46
72
75
46
72
75
46
74
77
48
76
79
50
66
69
40
73
76
47
73
76
47
66
69
40
71
74
45
70
73
44
77
80
53
67
70
43
76
79
52
73
76
47
71
74
47
68
71
42
81
84
55
71
74
45
78
81
52
68
71
42
68
71
42
76
79
50
70
73
44
72
75
44
75
78
47
65
68
37
72
75
46
72
75
46
72
75
46
72
75
46
72
75
46
72
75
46
72
75
46
72
75
46
72
75
46
72
75
46
72
75
46
72
75
46
72
75
46
72
75
46
72
75
46
72
75
46
72
75
46
72
75
46
72
75
48
71
74
47
74
74
48
72
75
48
72
75
48
72
75
46
72
75
46
72
75
46
72
75
46
72
75
46
72
75
46
72
75
46
72
75
46
72
75
46
72
75
46
72
75
46
72
75
46
72
75
46
72
75
46
72
75
46
72
75
46
73
76
47
70
73
44
75
78
49
70
73
44
72
75
46
72
75
46
76
79
50
71
74
45
70
73
46
76
79
52
65
68
39
77
80
51
72
75
46
70
73
44
73
76
47
71
74
45
68
71
42
72
75
46
74
77
48
70
73
44
73
76
45
73
76
45
71
74
43
74
77
46
72
75
46
72
75
46
72
75
46
72
75
46
72
75
46
72
75
46
72
75
46
72
75
46
72
75
46
72
75
46
72
75
46
72
75
46
72
75
46
72
75
46
72
75
46
72
75
46
72
75
46
72
75
46
72
75
48
71
74
47
74
74
48
72
75
48
72
75
48
72
75
46
72
75
46
72
75
46
72
75
46
72
75
46
72
75
46
72
75
46
72
75
46
72
75
46
72
75
46
72
75
46
72
75
46
72
75
46
72
75
46
72
75
46
72
75
46
72
75
46
72
75
46
72
75
44
72
75
44
72
75
44
72
75
44
72
75
44
72
75
44
72
75
46
72
75
46
72
75
46
72
75
46
72
75
44
72
75
44
72
75
44
72
75
44
72
75
44
72
75
44
72
75
44
72
75
44
72
75
44
72
75
44
72
75
44
72
75
44
72
75
46
72
75
46
72
75
46
72
75
46
72
75
46
72
75
46
72
75
46
72
75
46
72
75
46
72
75
46
72
75
46
72
75
46
72
75
46
72
75
46
72
75
46
72
75
46
73
76
47
69
72
43
74
77
50
71
74
47
74
74
48
72
75
48
72
75
48
72
75
46
72
75
46
72
75
46
72
75
46
72
75
46
72
75
46
72
75
46
72
75
46
72
75
46
72
75
46
72
75
46
72
75
46
72
75
46
72
75
46
72
75
46
72
75
46
72
75
46
72
75
46
72
75
44
72
75
44
72
75
44
72
75
44
72
75
44
72
75
44
72
75
46
72
75
46
72
75
46
72
75
46
72
75
44
72
75
44
72
75
44
72
75
44
72
75
44
72
75
44
72
75
44
72
75
44
72
75
44
72
75
44
72
75
44
72
75
44
72
75
46
72
75
46
72
75
46
72
75
46
72
75
46
72
75
46
72
75
46
72
75
46
72
75
46
72
75
46
72
75
46
72
75
46
72
75
46
72
75
46
72
75
46
72
75
46
71
74
45
71
74
45
73
76
49
69
72
45
74
74
48
72
75
48
72
75
48
72
75
46
72
75
46
72
75
46
72
75
46
72
75
46
72
75
46
72
75
46
72
75
46
72
75
46
72
75
46
72
75
46
72
75
46
72
75
46
72
75
46
72
75
46
72
75
46
72
75
46
72
75
46
72
75
46
72
75
46
72
75
46
72
75
46
72
75
46
72
75
46
72
75
46
72
75
46
72
75
46
72
75
46
72
75
46
72
75
46
72
75
44
72
75
44
72
75
44
72
75
44
72
75
44
72
75
44
72
75
44
72
75
44
72
75
44
72
75
44
72
75
46
72
75
46
72
75
46
72
75
46
72
75
46
72
75
46
72
75
46
72
75
46
72
75
46
72
75
46
72
75
46
72
75
46
72
75
46
72
75
46
72
75
46
72
75
46
74
77
48
72
75
46
71
74
47
77
80
53
74
74
48
72
75
48
72
75
48
72
75
46
72
75
46
72
75
46
72
75
46
72
75
46
72
75
46
72
75
46
72
75
46
72
75
46
72
75
46
72
75
46
72
75
46
72
75
46
72
75
46
72
75
46
72
75
46
72
75
46
72
75
46
72
75
46
72
75
46
72
75
46
72
75
46
72
75
46
72
75
46
72
75
46
72
75
46
72
75
46
72
75
46
72
75
46
72
75
46
72
75
44
72
75
44
72
75
44
72
75
44
72
75
44
72
75
44
72
75
44
72
75
44
72
75
44
72
75
44
72
75
46
72
75
46
72
75
46
72
75
46
72
75
46
72
75
46
72
75
46
72
75
46
72
75
46
72
75
46
72
75
46
72
75
46
72
75
46
72
75
46
72
75
46
72
75
46
73
76
47
71
74
45
74
77
50
68
71
44
74
74
48
72
75
48
72
75
48
72
75
46
72
75
46
72
75
46
72
75
46
72
75
46
72
75
46
72
75
46
72
75
46
72
75
46
72
75
46
72
75
46
72
75
46
72
75
46
72
75
46
72
75
46
72
75
46
72
75
46
72
75
46
72
75
48
72
75
48
72
75
48
72
75
48
72
75
48
72
75
48
72
75
46
72
75
46
72
75
46
72
75
46
72
75
46
72
75
46
72
75
46
72
75
46
72
75
46
72
75
46
72
75
46
72
75
46
72
75
46
72
75
46
72
75
46
72
75
46
72
75
46
72
75
46
72
75
46
72
75
46
72
75
46
72
75
46
72
75
46
72
75
46
72
75
46
72
75
46
72
75
46
72
75
46
72
75
46
72
75
46
72
75
46
72
75
46
70
73
44
68
71
42
73
76
47
74
77
48
74
74
48
72
75
48
72
75
48
72
75
46
72
75
46
72
75
46
72
75
46
72
75
46
72
75
46
72
75
46
72
75
46
72
75
46
72
75
46
72
75
46
72
75
46
72
75
46
72
75
46
72
75
46
72
75
46
72
75
46
72
75
46
72
75
48
72
75
48
72
75
48
72
75
48
72
75
48
72
75
48
72
75
46
72
75
46
72
75
46
72
75
46
72
75
46
72
75
46
72
75
46
72
75
46
72
75
46
72
75
46
72
75
46
72
75
46
72
75
46
72
75
46
72
75
46
72
75
46
72
75
46
72
75
46
72
75
46
72
75
46
72
75
46
72
75
46
72
75
46
72
75
46
72
75
46
72
75
46
72
75
46
72
75
46
72
75
46
72
75
46
72
75
46
72
75
46
72
75
46
78
81
52
68
71
42
72
75
46
74
74
48
72
75
48
72
75
48
72
75
46
72
75
46
72
75
46
72
75
46
72
75
46
72
75
46
72
75
46
72
75
46
72
75
46
72
75
46
72
75
46
72
75
46
72
75
46
72
75
46
72
75
46
72
75
46
72
75
48
72
75
48
72
75
48
72
75
48
72
75
48
72
75
48
72
75
48
72
75
48
74
74
46
74
74
46
74
74
46
74
74
46
74
74
48
74
74
48
74
74
48
74
74
48
74
74
48
74
74
48
74
74
48
74
74
48
74
74
48
74
74
48
74
74
48
74
74
48
72
75
46
72
75
46
72
75
46
72
75
46
72
75
46
72
75
46
72
75
46
72
75
46
72
75
46
72
75
46
72
75
46
72
75
46
72
75
46
72
75
46
72
75
46
72
75
46
72
75
46
64
67
38
79
82
53
245
248
219
74
74
48
74
74
50
72
75
48
74
74
48
72
75
48
74
74
48
72
75
48
74
74
48
72
75
48
74
74
48
72
75
48
74
74
48
72
75
46
74
74
48
72
75
46
74
74
48
72
75
46
74
74
48
72
75
48
74
74
48
72
75
48
74
74
48
72
75
48
74
74
48
72
75
48
74
74
48
74
74
48
74
74
46
74
74
46
74
74
46
74
74
46
74
74
48
74
74
48
74
74
48
74
74
48
74
74
48
74
74
48
74
74
48
74
74
48
74
74
50
74
74
48
74
74
50
74
74
48
74
74
48
72
75
46
74
74
48
72
75
46
74
74
48
72
75
46
74
74
48
72
75
46
74
74
48
72
75
46
74
74
48
72
75
46
74
74
48
72
75
46
74
74
48
72
75
48
73
73
47
76
79
52
71
71
45
251
251
225
251
249
226
253
251
230
74
74
50
75
73
50
74
74
50
75
73
50
74
74
50
75
73
50
74
74
50
75
73
50
74
74
50
75
73
50
74
74
48
75
73
50
74
74
48
75
73
50
74
74
48
75
73
50
74
74
50
76
74
51
73
73
49
72
70
47
74
74
50
70
68
45
76
76
52
76
74
51
73
73
47
74
74
46
73
76
47
72
75
46
73
76
47
70
73
46
72
75
48
73
73
47
77
77
51
74
74
50
75
75
51
77
77
53
73
73
49
75
73
52
75
73
50
71
69
48
77
75
52
75
73
50
74
74
48
75
73
50
74
74
48
75
73
50
74
74
48
75
73
50
74
74
48
75
73
50
74
74
48
75
73
50
74
74
48
75
73
50
74
74
48
75
73
50
74
74
50
75
73
50
74
74
50
252
250
227
252
250
227
