P3
# CREATOR: GIMP PNM Filter Version 1.1
3 2
255
255
4
4
4
255
4
4
4
255
255
255
4
255
255
255
4
4
0
